<?xml version="1.0" encoding="UTF-8" standalone="no"?>
<!DOCTYPE svg PUBLIC "-//W3C//DTD SVG 1.1//EN" "http://www.w3.org/Graphics/SVG/1.1/DTD/svg11.dtd">
<svg width="100%" height="100%" viewBox="0 0 114 93" version="1.1" xmlns="http://www.w3.org/2000/svg" xmlns:xlink="http://www.w3.org/1999/xlink" xml:space="preserve" xmlns:serif="http://www.serif.com/" style="fill-rule:evenodd;clip-rule:evenodd;stroke-linejoin:round;stroke-miterlimit:2;">
    <g transform="matrix(1,0,0,1,-2675.08,-1599.87)">
        <g transform="matrix(4.16667,0,0,4.16667,0,0)">
            <rect x="0" y="0" width="800" height="800" style="fill:white;fill-rule:nonzero;"/>
            <path d="M653.964,395.896L666.02,395.896L669.355,387.407L650.628,387.407L651.168,389.131L654.393,389.131L655.044,390.846L651.923,390.846L652.566,392.458L655.799,392.458L656.441,394.284L653.32,394.284L653.964,395.896ZM654.289,401.05C653.32,401.272 652.455,402.13 652.24,403.099C652.025,404.711 653.106,406.006 654.289,406.211C656.33,406.537 657.625,404.822 657.411,403.099C657.196,401.701 655.799,400.844 654.289,401.05ZM662.787,401.05C661.818,401.272 660.961,402.13 660.85,403.099C660.532,404.711 661.604,406.006 662.787,406.211C664.939,406.537 666.234,404.822 665.908,403.099C665.693,401.701 664.296,400.844 662.787,401.05ZM665.908,397.723L652.995,397.723C650.843,393.212 648.904,388.479 646.864,383.969L642.02,383.969L642.02,385.684L645.681,385.684C647.619,390.314 649.659,394.824 651.709,399.335L665.908,399.335C666.02,398.906 665.908,398.151 665.908,397.723Z" style="fill:rgb(118,120,123);"/>
        </g>
    </g>
</svg>
